<?xml version="1.0" encoding="utf-8"?>
<!-- Generator: Adobe Illustrator 24.0.2, SVG Export Plug-In . SVG Version: 6.00 Build 0)  -->
<svg version="1.1" id="图层_1" xmlns="http://www.w3.org/2000/svg" xmlns:xlink="http://www.w3.org/1999/xlink" x="0px" y="0px"
	 viewBox="0 0 4633.9 261.7" style="enable-background:new 0 0 4633.9 261.7;" xml:space="preserve">
<style type="text/css">
	.st0{fill:#AAAAAA;fill-opacity:0.1;}
</style>
<path class="st0" d="M96,27.9v37.3H0v59.1h73.6v36.6H0v97.4h-46.2V27.9H96z"/>
<path class="st0" d="M175,104.3c5.9-9.7,13.6-17.3,23.1-22.8c9.7-5.5,20.7-8.2,33-8.2v48.5h-12.2c-14.5,0-25.5,3.4-33,10.2
	c-7.3,6.8-10.9,18.7-10.9,35.6v91.1h-46.2V75.9H175V104.3z"/>
<path class="st0" d="M432.2,163.4c0,6.6-0.4,12.5-1.3,17.8H297.2c1.1,13.2,5.7,23.5,13.9,31c8.1,7.5,18.1,11.2,30,11.2
	c17.2,0,29.4-7.4,36.6-22.1h49.8c-5.3,17.6-15.4,32.1-30.4,43.6c-15,11.2-33.3,16.8-55.1,16.8c-17.6,0-33.4-3.9-47.5-11.6
	c-13.9-7.9-24.8-19-32.7-33.3c-7.7-14.3-11.6-30.8-11.6-49.5c0-18.9,3.9-35.5,11.6-49.8c7.7-14.3,18.5-25.3,32.3-33
	c13.9-7.7,29.8-11.6,47.8-11.6c17.4,0,32.9,3.7,46.5,11.2c13.9,7.5,24.5,18.2,32,32C428.3,129.8,432.2,145.5,432.2,163.4z
	 M384.3,150.2c-0.2-11.9-4.5-21.3-12.9-28.4c-8.4-7.3-18.6-10.9-30.7-10.9c-11.4,0-21.1,3.5-29,10.6c-7.7,6.8-12.4,16.4-14.2,28.7
	H384.3z"/>
<path class="st0" d="M635.8,163.4c0,6.6-0.4,12.5-1.3,17.8H500.9c1.1,13.2,5.7,23.5,13.9,31c8.1,7.5,18.2,11.2,30,11.2
	c17.2,0,29.4-7.4,36.6-22.1h49.8c-5.3,17.6-15.4,32.1-30.4,43.6c-15,11.2-33.3,16.8-55.1,16.8c-17.6,0-33.4-3.9-47.5-11.6
	c-13.9-7.9-24.7-19-32.7-33.3c-7.7-14.3-11.6-30.8-11.6-49.5c0-18.9,3.9-35.5,11.6-49.8c7.7-14.3,18.5-25.3,32.3-33
	c13.9-7.7,29.8-11.6,47.8-11.6c17.4,0,32.9,3.7,46.5,11.2c13.9,7.5,24.5,18.2,32,32C632,129.8,635.8,145.5,635.8,163.4z M588,150.2
	c-0.2-11.9-4.5-21.3-12.9-28.4c-8.4-7.3-18.6-10.9-30.7-10.9c-11.4,0-21.1,3.5-29,10.6c-7.7,6.8-12.4,16.4-14.2,28.7H588z"/>
<path class="st0" d="M855.1,261c-21.6,0-41.4-5.1-59.4-15.2c-18-10.1-32.3-24.1-42.9-41.9c-10.6-18-15.8-38.4-15.8-61.1
	c0-22.4,5.3-42.6,15.8-60.4c10.6-18,24.9-32.1,42.9-42.2c18-10.1,37.8-15.2,59.4-15.2c21.8,0,41.6,5.1,59.4,15.2
	c18,10.1,32.2,24.2,42.6,42.2c10.6,17.8,15.8,38,15.8,60.4c0,22.7-5.3,43-15.8,61.1c-10.3,17.8-24.5,31.8-42.6,41.9
	C896.5,256,876.7,261,855.1,261z M855.1,219.8c13.9,0,26.1-3.1,36.6-9.2c10.6-6.4,18.8-15.4,24.8-27.1c5.9-11.7,8.9-25.2,8.9-40.6
	s-3-28.8-8.9-40.3c-5.9-11.7-14.2-20.6-24.8-26.7c-10.6-6.2-22.8-9.2-36.6-9.2s-26.2,3.1-37,9.2c-10.6,6.2-18.8,15.1-24.8,26.7
	c-5.9,11.4-8.9,24.9-8.9,40.3s3,28.9,8.9,40.6c5.9,11.7,14.2,20.7,24.8,27.1C828.9,216.7,841.2,219.8,855.1,219.8z"/>
<path class="st0" d="M1108.6,73.3c21.8,0,39.4,6.9,52.8,20.8c13.4,13.6,20.1,32.8,20.1,57.4v107.2h-46.2v-101
	c0-14.5-3.6-25.6-10.9-33.3c-7.3-7.9-17.2-11.9-29.7-11.9c-12.8,0-22.9,4-30.4,11.9c-7.3,7.7-10.9,18.8-10.9,33.3v101h-46.2V75.9
	h46.2v22.8c6.2-7.9,14-14.1,23.4-18.5C1086.6,75.6,1097.2,73.3,1108.6,73.3z"/>
<path class="st0" d="M1271.7,14.5v244.2h-46.2V14.5H1271.7z"/>
<path class="st0" d="M1340.7,54.1c-8.1,0-15-2.5-20.5-7.6c-5.3-5.3-7.9-11.8-7.9-19.5s2.6-14.1,7.9-19.1c5.5-5.3,12.3-7.9,20.5-7.9
	s14.8,2.6,20.1,7.9c5.5,5.1,8.2,11.4,8.2,19.1s-2.8,14.2-8.2,19.5C1355.6,51.6,1348.9,54.1,1340.7,54.1z M1363.5,75.9v182.8h-46.2
	V75.9H1363.5z"/>
<path class="st0" d="M1510.5,73.3c21.8,0,39.4,6.9,52.8,20.8c13.4,13.6,20.1,32.8,20.1,57.4v107.2h-46.2v-101
	c0-14.5-3.6-25.6-10.9-33.3c-7.3-7.9-17.2-11.9-29.7-11.9c-12.8,0-22.9,4-30.4,11.9c-7.3,7.7-10.9,18.8-10.9,33.3v101h-46.2V75.9
	h46.2v22.8c6.2-7.9,14-14.1,23.4-18.5C1488.5,75.6,1499,73.3,1510.5,73.3z"/>
<path class="st0" d="M1797.3,163.4c0,6.6-0.4,12.5-1.3,17.8h-133.6c1.1,13.2,5.7,23.5,13.9,31s18.2,11.2,30,11.2
	c17.2,0,29.4-7.4,36.6-22.1h49.8c-5.3,17.6-15.4,32.1-30.4,43.6c-15,11.2-33.3,16.8-55.1,16.8c-17.6,0-33.4-3.9-47.5-11.6
	c-13.9-7.9-24.8-19-32.7-33.3c-7.7-14.3-11.5-30.8-11.5-49.5c0-18.9,3.8-35.5,11.5-49.8c7.7-14.3,18.5-25.3,32.3-33
	c13.9-7.7,29.8-11.6,47.9-11.6c17.4,0,32.9,3.7,46.5,11.2c13.9,7.5,24.5,18.2,32,32C1793.4,129.8,1797.3,145.5,1797.3,163.4z
	 M1749.4,150.2c-0.2-11.9-4.5-21.3-12.9-28.4c-8.4-7.3-18.6-10.9-30.7-10.9c-11.4,0-21.1,3.5-29,10.6c-7.7,6.8-12.4,16.4-14.2,28.7
	H1749.4z"/>
<path class="st0" d="M1989.2,261c-16.1,0-30.6-2.8-43.6-8.2c-12.8-5.5-22.9-13.4-30.4-23.8s-11.3-22.6-11.5-36.6h49.5
	c0.7,9.5,4,16.9,9.9,22.4c6.2,5.5,14.5,8.2,25.1,8.2c10.8,0,19.2-2.5,25.4-7.6c6.2-5.3,9.2-12.1,9.2-20.5c0-6.8-2.1-12.4-6.3-16.8
	c-4.2-4.4-9.5-7.8-15.8-10.2c-6.2-2.6-14.7-5.5-25.7-8.6c-15-4.4-27.2-8.7-36.6-12.9c-9.2-4.4-17.3-10.9-24.1-19.5
	c-6.6-8.8-9.9-20.5-9.9-35c0-13.6,3.4-25.5,10.2-35.6c6.8-10.1,16.4-17.8,28.7-23.1c12.3-5.5,26.4-8.2,42.2-8.2
	c23.8,0,43,5.8,57.8,17.5c15,11.4,23.2,27.5,24.7,48.2h-50.8c-0.4-7.9-3.8-14.4-10.2-19.5c-6.2-5.3-14.4-7.9-24.8-7.9
	c-9,0-16.3,2.3-21.8,6.9c-5.3,4.6-7.9,11.3-7.9,20.1c0,6.2,2,11.3,5.9,15.5c4.2,4,9.2,7.3,15.2,9.9c6.2,2.4,14.7,5.3,25.7,8.6
	c15,4.4,27.2,8.8,36.6,13.2s17.6,11,24.4,19.8c6.8,8.8,10.2,20.3,10.2,34.6c0,12.3-3.2,23.8-9.6,34.3s-15.7,19-28,25.4
	C2020.7,258,2006.1,261,1989.2,261z"/>
<path class="st0" d="M2098.8,167.3c0-18.9,3.9-35.4,11.6-49.5c7.7-14.3,18.4-25.3,32-33c13.6-7.9,29.3-11.9,46.9-11.9
	c22.7,0,41.4,5.7,56.1,17.2c15,11.2,25,27.1,30,47.5h-49.8c-2.6-7.9-7.1-14.1-13.5-18.5c-6.2-4.6-13.9-6.9-23.1-6.9
	c-13.2,0-23.7,4.8-31.4,14.5c-7.7,9.5-11.6,23-11.6,40.6c0,17.4,3.9,30.9,11.6,40.6c7.7,9.5,18.2,14.2,31.4,14.2
	c18.7,0,30.9-8.4,36.6-25.1h49.8c-5.1,19.8-15.1,35.5-30,47.2c-15,11.7-33.7,17.5-56.1,17.5c-17.6,0-33.2-3.9-46.9-11.6
	c-13.6-7.9-24.3-18.9-32-33C2102.7,202.8,2098.8,186.2,2098.8,167.3z"/>
<path class="st0" d="M2355.4,104.3c5.9-9.7,13.6-17.3,23.1-22.8c9.7-5.5,20.7-8.2,33-8.2v48.5h-12.2c-14.5,0-25.5,3.4-33,10.2
	c-7.3,6.8-10.9,18.7-10.9,35.6v91.1h-46.2V75.9h46.2V104.3z"/>
<path class="st0" d="M2612.6,163.4c0,6.6-0.4,12.5-1.3,17.8h-133.6c1.1,13.2,5.7,23.5,13.9,31c8.1,7.5,18.1,11.2,30,11.2
	c17.2,0,29.4-7.4,36.6-22.1h49.8c-5.3,17.6-15.4,32.1-30.4,43.6c-15,11.2-33.3,16.8-55.1,16.8c-17.6,0-33.4-3.9-47.5-11.6
	c-13.9-7.9-24.8-19-32.7-33.3c-7.7-14.3-11.6-30.8-11.6-49.5c0-18.9,3.9-35.5,11.6-49.8s18.5-25.3,32.3-33
	c13.9-7.7,29.8-11.6,47.8-11.6c17.4,0,32.9,3.7,46.5,11.2c13.9,7.5,24.5,18.2,32,32C2608.8,129.8,2612.6,145.5,2612.6,163.4z
	 M2564.8,150.2c-0.2-11.9-4.5-21.3-12.9-28.4c-8.4-7.3-18.6-10.9-30.7-10.9c-11.4,0-21.1,3.5-29,10.6c-7.7,6.8-12.4,16.4-14.2,28.7
	H2564.8z"/>
<path class="st0" d="M2816.3,163.4c0,6.6-0.4,12.5-1.3,17.8h-133.7c1.1,13.2,5.7,23.5,13.9,31c8.1,7.5,18.1,11.2,30,11.2
	c17.2,0,29.4-7.4,36.6-22.1h49.8c-5.3,17.6-15.4,32.1-30.4,43.6c-15,11.2-33.3,16.8-55.1,16.8c-17.6,0-33.4-3.9-47.5-11.6
	c-13.9-7.9-24.8-19-32.7-33.3c-7.7-14.3-11.6-30.8-11.6-49.5c0-18.9,3.8-35.5,11.6-49.8c7.7-14.3,18.5-25.3,32.3-33
	c13.9-7.7,29.8-11.6,47.9-11.6c17.4,0,32.9,3.7,46.5,11.2c13.9,7.5,24.5,18.2,32,32C2812.4,129.8,2816.3,145.5,2816.3,163.4z
	 M2768.4,150.2c-0.2-11.9-4.5-21.3-12.9-28.4c-8.4-7.3-18.6-10.9-30.7-10.9c-11.4,0-21.1,3.5-29,10.6c-7.7,6.8-12.4,16.4-14.2,28.7
	H2768.4z"/>
<path class="st0" d="M2951.3,73.3c21.8,0,39.4,6.9,52.8,20.8c13.4,13.6,20.1,32.8,20.1,57.4v107.2H2978v-101
	c0-14.5-3.6-25.6-10.9-33.3c-7.3-7.9-17.2-11.9-29.7-11.9c-12.8,0-22.9,4-30.4,11.9c-7.3,7.7-10.9,18.8-10.9,33.3v101H2850V75.9
	h46.2v22.8c6.2-7.9,14-14.1,23.4-18.5C2929.3,75.6,2939.9,73.3,2951.3,73.3z"/>
<path class="st0" d="M3265.6,258.7l-50.8-89.8H3193v89.8h-46.2V28.4h86.5c17.8,0,33,3.2,45.5,9.6c12.5,6.2,21.9,14.6,28.1,25.4
	c6.4,10.6,9.6,22.4,9.6,35.6c0,15.2-4.4,28.9-13.2,41.2c-8.8,12.1-21.9,20.5-39.3,25.1l55.1,93.4H3265.6z M3193,134.3h38.6
	c12.5,0,21.9-3,28.1-8.9c6.2-6.2,9.2-14.6,9.2-25.4c0-10.6-3.1-18.7-9.2-24.4c-6.2-5.9-15.5-8.9-28.1-8.9H3193V134.3z"/>
<path class="st0" d="M3528.2,163.4c0,6.6-0.4,12.5-1.3,17.8h-133.6c1.1,13.2,5.7,23.5,13.9,31c8.1,7.5,18.2,11.2,30,11.2
	c17.2,0,29.4-7.4,36.6-22.1h49.8c-5.3,17.6-15.4,32.1-30.4,43.6c-15,11.2-33.3,16.8-55.1,16.8c-17.6,0-33.4-3.9-47.5-11.6
	c-13.9-7.9-24.8-19-32.7-33.3c-7.7-14.3-11.6-30.8-11.6-49.5c0-18.9,3.9-35.5,11.6-49.8s18.5-25.3,32.3-33
	c13.9-7.7,29.8-11.6,47.8-11.6c17.4,0,32.9,3.7,46.5,11.2c13.9,7.5,24.5,18.2,32,32C3524.3,129.8,3528.2,145.5,3528.2,163.4z
	 M3480.3,150.2c-0.2-11.9-4.5-21.3-12.9-28.4c-8.4-7.3-18.6-10.9-30.7-10.9c-11.4,0-21.1,3.5-29,10.6c-7.7,6.8-12.4,16.4-14.2,28.7
	H3480.3z"/>
<path class="st0" d="M3550,167.3c0-18.9,3.9-35.4,11.6-49.5c7.7-14.3,18.4-25.3,32-33c13.6-7.9,29.3-11.9,46.9-11.9
	c22.7,0,41.4,5.7,56.1,17.2c15,11.2,25,27.1,30,47.5h-49.8c-2.6-7.9-7.2-14.1-13.5-18.5c-6.2-4.6-13.9-6.9-23.1-6.9
	c-13.2,0-23.6,4.8-31.3,14.5c-7.7,9.5-11.6,23-11.6,40.6c0,17.4,3.8,30.9,11.6,40.6c7.7,9.5,18.1,14.2,31.3,14.2
	c18.7,0,30.9-8.4,36.6-25.1h49.8c-5.1,19.8-15.1,35.5-30,47.2c-15,11.7-33.7,17.5-56.1,17.5c-17.6,0-33.2-3.9-46.9-11.6
	c-13.6-7.9-24.3-18.9-32-33C3553.9,202.8,3550,186.2,3550,167.3z"/>
<path class="st0" d="M3841.6,261.7c-17.6,0-33.4-3.9-47.5-11.6c-14.1-7.9-25.2-19-33.3-33.3c-7.9-14.3-11.9-30.8-11.9-49.5
	s4.1-35.2,12.2-49.5c8.4-14.3,19.7-25.3,34-33c14.3-7.9,30.2-11.9,47.9-11.9s33.6,4,47.9,11.9c14.3,7.7,25.5,18.7,33.7,33
	c8.4,14.3,12.5,30.8,12.5,49.5s-4.3,35.2-12.9,49.5c-8.4,14.3-19.8,25.4-34.3,33.3C3875.5,257.8,3859.4,261.7,3841.6,261.7z
	 M3841.6,221.4c8.4,0,16.2-2,23.4-5.9c7.5-4.2,13.4-10.3,17.8-18.5c4.4-8.1,6.6-18,6.6-29.7c0-17.4-4.6-30.7-13.9-39.9
	c-9-9.5-20.1-14.2-33.3-14.2c-13.2,0-24.3,4.7-33.3,14.2c-8.8,9.2-13.2,22.6-13.2,39.9s4.3,30.8,12.9,40.3
	C3817.4,216.8,3828.4,221.4,3841.6,221.4z"/>
<path class="st0" d="M4017,104.3c5.9-9.7,13.6-17.3,23.1-22.8c9.7-5.5,20.7-8.2,33-8.2v48.5h-12.2c-14.5,0-25.5,3.4-33,10.2
	c-7.3,6.8-10.9,18.7-10.9,35.6v91.1h-46.2V75.9h46.2V104.3z"/>
<path class="st0" d="M4092.4,166.7c0-18.5,3.6-34.9,10.9-49.2c7.5-14.3,17.6-25.3,30.4-33s27-11.6,42.6-11.6c11.9,0,23.2,2.6,34,7.9
	c10.8,5.1,19.4,11.9,25.7,20.5V14.5h46.9v244.2h-46.9v-27.1c-5.7,9-13.8,16.3-24.1,21.8s-22.3,8.2-36,8.2c-15.4,0-29.5-4-42.2-11.9
	c-12.8-7.9-22.9-19-30.4-33.3C4096,202,4092.4,185.4,4092.4,166.7z M4236.3,167.3c0-11.2-2.2-20.8-6.6-28.7
	c-4.4-8.1-10.3-14.3-17.8-18.5c-7.5-4.4-15.5-6.6-24.1-6.6s-16.5,2.1-23.8,6.3c-7.3,4.2-13.2,10.3-17.8,18.5
	c-4.4,7.9-6.6,17.4-6.6,28.4s2.2,20.7,6.6,29c4.6,8.1,10.6,14.4,17.8,18.8c7.5,4.4,15.4,6.6,23.8,6.6c8.6,0,16.6-2.1,24.1-6.3
	c7.5-4.4,13.4-10.6,17.8-18.5C4234.1,188.2,4236.3,178.5,4236.3,167.3z"/>
<path class="st0" d="M4497.9,163.4c0,6.6-0.4,12.5-1.3,17.8h-133.7c1.1,13.2,5.7,23.5,13.9,31c8.1,7.5,18.1,11.2,30,11.2
	c17.2,0,29.4-7.4,36.6-22.1h49.8c-5.3,17.6-15.4,32.1-30.4,43.6c-15,11.2-33.3,16.8-55.1,16.8c-17.6,0-33.4-3.9-47.5-11.6
	c-13.9-7.9-24.8-19-32.7-33.3c-7.7-14.3-11.6-30.8-11.6-49.5c0-18.9,3.9-35.5,11.6-49.8c7.7-14.3,18.5-25.3,32.3-33
	s29.8-11.6,47.9-11.6c17.4,0,32.9,3.7,46.5,11.2c13.9,7.5,24.5,18.2,32,32C4494,129.8,4497.9,145.5,4497.9,163.4z M4450,150.2
	c-0.2-11.9-4.5-21.3-12.9-28.4c-8.4-7.3-18.6-10.9-30.7-10.9c-11.4,0-21.1,3.5-29,10.6c-7.7,6.8-12.4,16.4-14.2,28.7H4450z"/>
<path class="st0" d="M4577.8,104.3c5.9-9.7,13.6-17.3,23.1-22.8c9.7-5.5,20.7-8.2,33-8.2v48.5h-12.2c-14.5,0-25.5,3.4-33,10.2
	c-7.3,6.8-10.9,18.7-10.9,35.6v91.1h-46.2V75.9h46.2V104.3z"/>
</svg>
