<?xml version="1.0" encoding="utf-8"?>
<!-- Generator: Adobe Illustrator 24.0.2, SVG Export Plug-In . SVG Version: 6.00 Build 0)  -->
<svg version="1.1" id="图层_1" xmlns="http://www.w3.org/2000/svg" xmlns:xlink="http://www.w3.org/1999/xlink" x="0px" y="0px"
	 viewBox="0 0 27.7 33" style="enable-background:new 0 0 27.7 33;" xml:space="preserve">
<style type="text/css">
	.st0{opacity:0.3;}
	.st1{opacity:0.8;fill:url(#SVGID_1_);enable-background:new    ;}
	.st2{fill:none;stroke:#022125;stroke-width:2;stroke-linecap:round;stroke-linejoin:round;stroke-miterlimit:10;}
	.st3{fill:#1FB5C9;}
</style>
<g class="st0">
	
		<linearGradient id="SVGID_1_" gradientUnits="userSpaceOnUse" x1="13.8123" y1="15.5055" x2="13.8123" y2="0.8787" gradientTransform="matrix(1 0 0 -1 0 33.8898)">
		<stop  offset="0" style="stop-color:#FFFFFF;stop-opacity:0.5"/>
		<stop  offset="1" style="stop-color:#1FB5C9"/>
	</linearGradient>
	<path class="st1" d="M11.7,19.5L6,29.3C5,30.9,6.3,33,8.1,33h11.4c1.9,0,3-2.1,2.1-3.7l-5.7-9.9C15,17.9,12.7,17.9,11.7,19.5z"/>
	<path class="st2" d="M13.8,26.7c7.1,0,12.8-5.7,12.8-12.8C26.7,6.7,20.9,1,13.8,1C6.7,1,1,6.7,1,13.8C1,20.9,6.7,26.7,13.8,26.7z"
		/>
	<path class="st3" d="M13.8,18.3c2.5,0,4.5-2,4.5-4.5c0-2.5-2-4.5-4.5-4.5c-2.5,0-4.5,2-4.5,4.5C9.3,16.3,11.3,18.3,13.8,18.3z"/>
</g>
</svg>
