<?xml version="1.0" encoding="utf-8"?>
<!-- Generator: Adobe Illustrator 24.0.2, SVG Export Plug-In . SVG Version: 6.00 Build 0)  -->
<svg version="1.1" id="图层_1" xmlns="http://www.w3.org/2000/svg" xmlns:xlink="http://www.w3.org/1999/xlink" x="0px" y="0px"
	 viewBox="0 0 259 170.2" style="enable-background:new 0 0 259 170.2;" xml:space="preserve">
<style type="text/css">
	.st0{clip-path:url(#SVGID_2_);}
	.st1{fill:#FFFFFF;}
	.st2{fill:#7393FF;}
	
		.st3{opacity:0.3;fill:none;stroke:#022125;stroke-width:0.9798;stroke-linecap:round;stroke-linejoin:round;stroke-miterlimit:10;enable-background:new    ;}
	.st4{fill:none;stroke:#FFFFFF;stroke-width:1.2199;stroke-linecap:round;stroke-linejoin:round;stroke-miterlimit:10;}
	.st5{fill:#FFFFFF;stroke:#1C2E34;stroke-width:0.9798;stroke-linecap:round;stroke-linejoin:round;stroke-miterlimit:10;}
	.st6{fill:none;stroke:#1C2E34;stroke-width:0.9798;stroke-linecap:round;stroke-linejoin:round;stroke-miterlimit:10;}
	.st7{fill:none;stroke:#1FB5C9;stroke-width:1.8791;stroke-miterlimit:10;}
	.st8{fill:none;stroke:#1FB5C9;stroke-width:5.4628;stroke-linecap:round;stroke-linejoin:round;stroke-miterlimit:10;}
	.st9{fill:#FFBD9A;}
	.st10{fill:#007BDE;}
	.st11{fill:#0086FF;}
	.st12{fill:#00B1FF;}
	.st13{fill:none;stroke:#55382C;stroke-width:0.8439;stroke-miterlimit:10;}
	.st14{fill:#FFC9BD;}
	.st15{fill:#FF9184;}
	.st16{fill:none;stroke:#FF6C63;stroke-width:0.7349;stroke-miterlimit:10;}
	.st17{fill:#954B55;}
	.st18{fill:#FFB1A7;}
	.st19{fill:#1B172C;}
	.st20{fill:none;stroke:#1B172C;stroke-width:0.5621;stroke-linecap:round;stroke-linejoin:round;stroke-miterlimit:10;}
	.st21{fill:#793641;}
	.st22{fill:none;stroke:#1B172C;stroke-width:0.7051;stroke-linecap:round;stroke-linejoin:round;stroke-miterlimit:10;}
	.st23{fill:#061418;}
	.st24{fill:#1C2E34;}
	.st25{fill:none;stroke:#55382E;stroke-width:1.1466;stroke-miterlimit:10;}
	.st26{fill:none;stroke:#55382E;stroke-miterlimit:10;stroke-opacity:0.2;}
</style>
<g>
	<defs>
		<rect id="SVGID_1_" y="0" width="259" height="170"/>
	</defs>
	<clipPath id="SVGID_2_">
		<use xlink:href="#SVGID_1_"  style="overflow:visible;"/>
	</clipPath>
	<g class="st0">
		<path class="st1" d="M124.5,82.6H14.6c-1.2,0-2.3-1-2.3-2.3V3.4c0-1.2,1-2.3,2.3-2.3h109.9c1.2,0,2.3,1,2.3,2.3v76.9
			C126.7,81.6,125.7,82.6,124.5,82.6z"/>
		<path class="st2" d="M31.4,23.5c3.8,0,6.9-3.1,6.9-6.9c0-3.8-3.1-6.9-6.9-6.9s-6.9,3.1-6.9,6.9C24.6,20.4,27.6,23.5,31.4,23.5z"/>
		<path class="st2" d="M38.1,42.6c0.8-3.7-1.5-7.4-5.2-8.2c-3.7-0.8-7.4,1.5-8.2,5.2c-0.8,3.7,1.5,7.4,5.2,8.2
			C33.6,48.6,37.3,46.3,38.1,42.6z"/>
		<path class="st2" d="M31.4,73.3c3.8,0,6.9-3.1,6.9-6.9c0-3.8-3.1-6.9-6.9-6.9s-6.9,3.1-6.9,6.9C24.6,70.2,27.6,73.3,31.4,73.3z"/>
		<path class="st3" d="M42.6,13.6h61.8"/>
		<path class="st3" d="M42.6,18.5h9.1"/>
		<path class="st3" d="M42.6,38.4h61.8"/>
		<path class="st3" d="M42.6,43.2h32.8"/>
		<path class="st3" d="M42.6,64H56"/>
		<path class="st3" d="M42.6,68.8h61.8"/>
		<path class="st4" d="M28.6,17.3l2,1.3l3.6-4.1"/>
		<path class="st4" d="M28.6,41.7l2,1.3l3.6-4.1"/>
		<path class="st4" d="M28.6,67.2l2,1.3l3.6-4"/>
		<path class="st5" d="M211.9,28.9c7.9,0,14.2-6.4,14.2-14.2c0-7.9-6.4-14.2-14.2-14.2c-7.9,0-14.2,6.4-14.2,14.2
			C197.7,22.6,204.1,28.9,211.9,28.9z"/>
		<path class="st6" d="M211.9,8.6v6.1h9.6"/>
		<path class="st2" d="M238.1,54H255c2.3,0,4-1.8,4-4s-1.8-4-4-4h-16.9c-2.3,0-4,1.8-4,4C234,52.2,235.8,54,238.1,54z"/>
		<path class="st1" d="M250.1,49.9c0,0.6,0.5,1.1,1.1,1.1c0.6,0,1.1-0.5,1.1-1.1c0-0.6-0.5-1.1-1.1-1.1
			C250.6,48.9,250.1,49.4,250.1,49.9z"/>
		<path class="st1" d="M245.4,49.9c0,0.6,0.5,1.1,1.1,1.1c0.6,0,1.1-0.5,1.1-1.1c0-0.6-0.5-1.1-1.1-1.1
			C245.9,48.8,245.4,49.4,245.4,49.9z"/>
		<path class="st1" d="M240.7,49.9c0,0.6,0.5,1.1,1.1,1.1c0.6,0,1.1-0.5,1.1-1.1c0-0.6-0.5-1.1-1.1-1.1
			C241.2,48.8,240.7,49.3,240.7,49.9z"/>
		<path class="st7" d="M165,169.9l9.6-39.2c1.1-4.5,5.7-7.7,10.9-7.7c5.3,0,9.8,3.3,10.9,7.9L205,170"/>
		<path class="st8" d="M164.9,123.3h21.3c12,0,20.3-7.7,22.3-19.5l5.3-31.4"/>
		<path class="st9" d="M122.4,163.1l4.9-15.7l7.9-0.4l-5,16.8l-7.5,0.1L122.4,163.1z"/>
		<path d="M131.3,160.6c0,0-6.5,2.6-9.5-1.5l-13.4,8.1l24.9-0.2L131.3,160.6z"/>
		<path class="st1" d="M133.3,167l-24.9,0.2l0,2.3l24.9-0.2L133.3,167z"/>
		<path class="st1" d="M121.9,162.6c-0.1,0-0.1-0.1-0.2-0.1c-1-1.3-2.1-2-2.1-2c-0.2-0.1-0.3-0.4-0.1-0.6c0.1-0.2,0.4-0.3,0.6-0.1
			c0.1,0,1.1,0.8,2.3,2.2c0.2,0.2,0.1,0.5-0.1,0.6C122.3,162.7,122.1,162.7,121.9,162.6z"/>
		<path class="st1" d="M119.8,163.6c-0.1,0-0.1-0.1-0.2-0.1c-1-1.3-2.1-2-2.1-2c-0.2-0.1-0.3-0.4-0.1-0.6c0.1-0.2,0.4-0.3,0.6-0.1
			c0.1,0,1.1,0.8,2.3,2.2c0.2,0.2,0.1,0.5-0.1,0.6C120.1,163.7,119.9,163.7,119.8,163.6z"/>
		<path class="st1" d="M117.7,164.7c-0.1,0-0.1-0.1-0.2-0.1c-1-1.3-2.1-2-2.1-2c-0.2-0.1-0.3-0.4-0.1-0.6c0.1-0.2,0.4-0.3,0.6-0.1
			c0.1,0,1.1,0.8,2.3,2.2c0.2,0.2,0.1,0.5-0.1,0.6C118,164.7,117.8,164.7,117.7,164.7z"/>
		<path class="st10" d="M150,102l-6.8,0.5c-4.8,0.3-8.8,3.6-10.2,8.3l-10.6,41.2l14.8-1.4l12-36.2L150,102z"/>
		<path class="st11" d="M138.3,153.8h-17.9l1.2-6.6h17.9L138.3,153.8z"/>
		<path class="st9" d="M151,163.1l0.2-15.5l7.8-0.4l-0.2,16.6l-7.5,0.1L151,163.1z"/>
		<path d="M160,160.6c0,0-6.5,2.6-9.5-1.5l-13.4,8.1l24.9-0.2L160,160.6z"/>
		<path class="st1" d="M161.9,167l-24.9,0.2l0,2.3l24.9-0.2L161.9,167z"/>
		<path class="st1" d="M150.5,162.6c-0.1,0-0.1-0.1-0.2-0.1c-1-1.3-2.1-2-2.1-2c-0.2-0.1-0.3-0.4-0.1-0.6c0.1-0.2,0.4-0.3,0.6-0.1
			c0.1,0,1.1,0.8,2.3,2.2c0.2,0.2,0.1,0.5-0.1,0.6C150.8,162.7,150.7,162.7,150.5,162.6z"/>
		<path class="st1" d="M148.4,163.6c-0.1,0-0.1-0.1-0.2-0.1c-1-1.3-2.1-2-2.1-2c-0.2-0.1-0.3-0.4-0.1-0.6c0.1-0.2,0.4-0.3,0.6-0.1
			c0.1,0,1.1,0.8,2.3,2.2c0.2,0.2,0.1,0.5-0.1,0.6C148.8,163.7,148.6,163.7,148.4,163.6z"/>
		<path class="st1" d="M146.3,164.7c-0.1,0-0.1-0.1-0.2-0.1c-1-1.3-2.1-2-2.1-2c-0.2-0.1-0.3-0.4-0.1-0.6c0.1-0.2,0.4-0.3,0.6-0.1
			c0.1,0,1.1,0.8,2.3,2.2c0.2,0.2,0.1,0.5-0.1,0.6C146.6,164.7,146.4,164.7,146.3,164.7z"/>
		<path class="st11" d="M192,101.4l-21.4,0.8l-15.9,0.3c-4.6,0-8.5,2.8-8.5,7.4c-0.2,14.3,0.8,44,1.6,43.9c0.9-0.2,13.9,0,13.9,0
			l1.3-32.5l10.2,1.1c2.5,0,9.9,0.5,12.1-0.7C190.1,119.4,196,114,192,101.4z"/>
		<path class="st12" d="M163.3,147.2h-17.9v6.6h17.9V147.2z"/>
		<path class="st13" d="M163.1,121.3l-0.3-7.3"/>
		<path class="st14" d="M130.1,75.9l-8.6-4.3c0,0-7-0.5-11.2,0.4c-0.5,0.1-0.8,0.6-0.7,0.9s0.5,0.7,0.8,0.6l4-0.5l-2.1,1.4
			c-0.6,0.4-0.5,1.2,0.1,1.5c0.3,0.1,0.6,0.1,0.8,0c1.1-0.7,4.9-2.4,8.5-0.3l-3.4,1.5c-0.7,0.3-0.8,1.1-0.4,1.7
			c0.2,0.3,0.6,0.4,0.9,0.4l3.1-0.4c0,0,3.7,1.5,7.1-0.1L130.1,75.9z"/>
		<path class="st15" d="M158.1,64.9c-2.7,6.7-6.6,19.9-6.6,19.9L130,74.7l-2.8,7.3l18.2,12.4l19.9-0.8l1.5-15.5L158.1,64.9z"/>
		<path class="st15" d="M161.7,60.6c-1.4,1.1-2.8,2.5-3.6,4.3l-1.3,37.2c0,0,22.8,4.8,35.2-0.8c0,0-0.4-31.2-7.4-39.4
			c0,0-2.3-4.3-13.6-4.4C167.7,57.6,164.3,58.5,161.7,60.6z"/>
		<path class="st16" d="M159.6,71.5l1.7,26.1"/>
		<path class="st14" d="M137.6,93.1l-0.3-6.4c0,0-2.3-4.8-4.4-4.9c-1.5-0.1-3.5,1-4.5,2.1c-0.5,0.5-0.4,1.3,0.3,1.6
			c1,0.5,2.5,1.4,3.3,2.5c0,0-1,5.2,0.7,7.3c0.8,1,6,2.3,6,2.3L137.6,93.1z"/>
		<path class="st15" d="M172.4,63.7l-4.1,26.1l-30.9,1.3V102l33.2-0.8c1.2,0.1,2.3-0.4,2.9-1l0.4,0.2c0,0,9,0.2,11.5-30.6
			L172.4,63.7z"/>
		<path class="st16" d="M140.3,91l28.1-1.3l3.3-21.1"/>
		<path class="st16" d="M168.3,89.7l4.2,1.3"/>
		<path class="st16" d="M184.8,78l-3.1,13.9c-0.8,3.5-2.6,6.7-5.4,8.9l-1.4,1.1"/>
		<path class="st17" d="M156.1,33.7c0,0,0.8,3.7,0,5.9c-0.8,2.3-3.2,3.3-2.2,9.1c1.1,5.8-0.1,6-0.4,7.6c0,0,23.4,2.2,35.2-3.9
			c0,0-2-3.4-4.2-7.2c-2.2-3.8-3-10-3-10l-9-3.5L156.1,33.7z"/>
		<path class="st17" d="M161.7,29.4c-0.3-0.1,0.8-1.6,1-1.7c4.1-1.3,13.1-3.1,17.6,4.2c3.3,5.4,0,15.5-7.1,18.6
			c-6.7,2.9-5.6-19.2-5.6-19.2L161.7,29.4z"/>
		<path class="st18" d="M163.3,43.2c0.2,1.8-1,3.5-2.9,3.7c-1.8,0.2-3.5-1-3.7-2.9c-0.2-1.8,1-3.5,2.9-3.7
			C161.5,40,163.2,41.4,163.3,43.2z"/>
		<path class="st14" d="M164.5,52l0.8,7.2c0.3,2.5,2,3.7,4.4,3.4c2.1-0.3,4-1.6,4-3.7l-1.8-11.2L164.5,52z"/>
		<path class="st19" d="M164.9,56.4c5-0.5,7.6-7.6,7.6-7.6l-8.2,2.4L164.9,56.4z"/>
		<path class="st14" d="M166.7,53c-4.2,0.2-7.9-2.9-8.2-6.4l-0.7-8.2c-0.4-4.3,2.7-8.2,7.1-8.8c4.4-0.6,9.2,2.5,9.8,7l0.5,6.6
			C175.5,48.4,172.2,52.7,166.7,53z"/>
		<path class="st17" d="M171.3,35.6c-2,3,1.3,7.3,1.3,7.3l6.2-7.5C178.7,35.4,172.4,33.8,171.3,35.6z"/>
		<path class="st14" d="M179.1,42.1c0.2,1.8-1,3.5-2.9,3.7c-1.8,0.2-3.5-1-3.7-2.9c-0.2-1.8,1-3.5,2.9-3.7
			C177.2,39,178.9,40.3,179.1,42.1z"/>
		<path class="st20" d="M174.7,43.6c0,0-0.3-2.4,2.1-2.3"/>
		<path class="st20" d="M162.5,45.4v0.9h0.9"/>
		<path class="st21" d="M167.3,39.5c0,0-1.9-0.1-1.9,0.6c0,0,0,0.4,1.6,0.5c1.6,0,2-0.1,2.2-0.5C169.4,39.6,168.1,39.4,167.3,39.5z"
			/>
		<path class="st21" d="M160,39.7c0,0,1.5-0.2,1.7,0.4c0,0,0.1,0.4-1.2,0.5c-1.3,0.1-1.8,0-1.9-0.3C158.4,40,159.2,39.7,160,39.7z"
			/>
		<path class="st22" d="M165.6,43.3c0,0,0.8-1.1,2.4,0"/>
		<path class="st22" d="M159.3,43.5c0,0,0.8-1.1,1.8-0.1"/>
		<path class="st22" d="M164.1,48.1c0,0,1.2,0.3,2.3-0.9"/>
		<path class="st17" d="M162.7,27.7c0,0-9,3.3-7.2,6.7c1.4,2.5,10.5,4.1,19.2,2.4c0,0,4-3.2-0.9-6.6
			C173.7,30.2,171.1,26.4,162.7,27.7z"/>
		<path class="st14" d="M162.8,59.7c0,0,2.6-1.7,6.4-2.2c0,0,4.5-0.3,8.4,0.7c0,0-0.3,4-7.9,5c-1.5,0.2-3,0.1-4.5-0.3
			C163.6,62.5,163.3,61.4,162.8,59.7z"/>
		<path class="st23" d="M137.2,100.2h-26.1v-2.9h26c0.8,0,1.5,0.7,1.5,1.5C138.6,99.6,137.9,100.2,137.2,100.2z"/>
		<path class="st24" d="M114.6,100.2H77.2c-2,0-3.8-1.3-4.2-3.2l-7.3-26.5c-0.3-0.9,0.5-2,1.5-2h37.8c0.8,0,1.5,0.6,1.8,1.3
			L114.6,100.2z"/>
		<path class="st1" d="M91.3,85.1c0,1.8-1.5,3.3-3.3,3.3c-1.8,0-3.3-1.5-3.3-3.3c0-1.8,1.5-3.3,3.3-3.3
			C89.9,81.8,91.3,83.2,91.3,85.1z"/>
		<path class="st25" d="M104.9,103.7v65.7"/>
		<path class="st1" d="M159,100.2H48v7h111V100.2z"/>
		<path class="st26" d="M249.6,169.5H0"/>
	</g>
</g>
</svg>
