<?xml version="1.0" encoding="utf-8"?>
<!-- Generator: Adobe Illustrator 24.0.2, SVG Export Plug-In . SVG Version: 6.00 Build 0)  -->
<svg version="1.1" id="图层_1" xmlns="http://www.w3.org/2000/svg" xmlns:xlink="http://www.w3.org/1999/xlink" x="0px" y="0px"
	 viewBox="0 0 23.2 36" style="enable-background:new 0 0 23.2 36;" xml:space="preserve">
<style type="text/css">
	.st0{opacity:0.3;}
	.st1{opacity:0.8;fill:url(#SVGID_1_);enable-background:new    ;}
	.st2{fill:#1FB5C9;}
	.st3{fill:none;stroke:#022125;stroke-width:2;stroke-linecap:round;stroke-linejoin:round;stroke-miterlimit:10;}
</style>
<g class="st0">
	
		<linearGradient id="SVGID_1_" gradientUnits="userSpaceOnUse" x1="11.5772" y1="13.035" x2="11.5772" y2="-0.1485" gradientTransform="matrix(1 0 0 -1 0 35.8898)">
		<stop  offset="0" style="stop-color:#FFFFFF;stop-opacity:0.5"/>
		<stop  offset="1" style="stop-color:#1FB5C9"/>
	</linearGradient>
	<path class="st1" d="M9.8,24l-3.7,9.4C5.6,34.6,6.6,36,7.9,36h7.4c1.4,0,2.3-1.4,1.8-2.6L13.4,24C12.8,22.3,10.4,22.3,9.8,24z"/>
	<path class="st2" d="M11.6,13.3c1.3,0,2.4-1.1,2.4-2.4c0-1.3-1.1-2.4-2.4-2.4s-2.4,1.1-2.4,2.4C9.2,12.2,10.3,13.3,11.6,13.3z"/>
	<path class="st3" d="M11.6,25.9c-3.9,0-7-3.2-7-7V8c0-3.9,3.1-7,7-7c3.9,0,7,3.2,7,7v10.9C18.6,22.7,15.5,25.9,11.6,25.9z"/>
	<path class="st3" d="M22.2,22.6c0,3.7-4.1,6.7-7.9,6.7H8.8c-3.7,0-7.8-3-7.8-6.7"/>
</g>
</svg>
