<?xml version="1.0" encoding="utf-8"?>
<!-- Generator: Adobe Illustrator 24.0.2, SVG Export Plug-In . SVG Version: 6.00 Build 0)  -->
<svg version="1.1" id="图层_1" xmlns="http://www.w3.org/2000/svg" xmlns:xlink="http://www.w3.org/1999/xlink" x="0px" y="0px"
	 viewBox="0 0 49.7 48" style="enable-background:new 0 0 49.7 48;" xml:space="preserve">
<style type="text/css">
	.st0{fill:url(#SVGID_1_);}
	.st1{fill:#FFFFFF;fill-opacity:0.5;}
	.st2{fill:none;stroke:#022125;stroke-linecap:round;stroke-linejoin:round;stroke-miterlimit:10;}
	.st3{fill:none;stroke:#1FB5C9;stroke-width:2;stroke-linecap:round;stroke-linejoin:round;stroke-miterlimit:10;}
	.st4{fill:#F76969;}
</style>
<linearGradient id="SVGID_1_" gradientUnits="userSpaceOnUse" x1="9.5" y1="49.7208" x2="9.5" y2="30.852" gradientTransform="matrix(1 0 0 -1 0 49.8898)">
	<stop  offset="0" style="stop-color:#FFFFFF;stop-opacity:0.5"/>
	<stop  offset="1" style="stop-color:#1FB5C9"/>
</linearGradient>
<path class="st0" d="M9.5,19c5.2,0,9.5-4.3,9.5-9.5C19,4.3,14.7,0,9.5,0C4.3,0,0,4.3,0,9.5C0,14.7,4.3,19,9.5,19z"/>
<g>
	<path class="st1" d="M23,42c11,0,20-9,20-20S34,2,23,2S3,11,3,22S12,42,23,42z"/>
	<path class="st2" d="M23,42c11,0,20-9,20-20S34,2,23,2S3,11,3,22S12,42,23,42z"/>
</g>
<path class="st3" d="M40.5,39.3l8.2,7.7"/>
<path class="st4" d="M18,11.5c1.3-1.2,3-1.7,5.1-1.7s3.7,0.5,4.9,1.6c1.3,1.1,1.9,2.6,1.9,4.7c0,1.9-0.6,3.5-1.9,4.9l-1.1,1.1
	l-0.1,0.1C26,22.9,25.3,23.5,25,24c-0.5,0.6-0.8,1.3-0.9,2.1c0,0.3-0.2,0.6-0.3,0.7c-0.2,0.2-0.4,0.3-0.7,0.3h-0.6
	c-0.3,0-0.6-0.1-0.7-0.3c-0.2-0.2-0.2-0.4-0.2-0.7c0.2-1.5,0.8-2.9,1.9-4l1-0.9l0.5-0.5l0.6-0.6c0.3-0.3,0.7-0.7,1.1-1.4
	c0.4-0.6,0.6-1.5,0.6-2.6s-0.4-2-1.2-2.6c-0.8-0.7-1.7-1-3-1c-1.2,0-2.2,0.4-3.1,1.1c-0.6,0.6-1,1.3-1.2,2.2c0,0.3-0.2,0.6-0.3,0.7
	c-0.2,0.2-0.4,0.3-0.7,0.3h-1.5c-0.1,0-0.2,0-0.2-0.1c-0.1,0-0.1-0.1-0.1-0.2C16,14.4,16.7,12.7,18,11.5z M21.3,33.6
	c-0.4-0.4-0.6-0.9-0.6-1.6c0-0.6,0.2-1.2,0.6-1.6c0.4-0.4,0.9-0.6,1.4-0.6s1,0.2,1.5,0.6c0.4,0.4,0.6,0.9,0.6,1.6s-0.2,1.2-0.6,1.6
	c-0.4,0.4-0.9,0.6-1.5,0.6C22.1,34.2,21.6,34,21.3,33.6z"/>
</svg>
