<?xml version="1.0" encoding="utf-8"?>
<!-- Generator: Adobe Illustrator 24.0.2, SVG Export Plug-In . SVG Version: 6.00 Build 0)  -->
<svg version="1.1" id="图层_1" xmlns="http://www.w3.org/2000/svg" xmlns:xlink="http://www.w3.org/1999/xlink" x="0px" y="0px"
	 viewBox="0 0 43.5 42.5" style="enable-background:new 0 0 43.5 42.5;" xml:space="preserve">
<style type="text/css">
	.st0{fill:url(#SVGID_1_);}
	.st1{fill:#FFFFFF;fill-opacity:0.5;}
	.st2{fill:none;stroke:#022125;stroke-linecap:round;stroke-linejoin:round;stroke-miterlimit:10;}
	.st3{fill:#F76969;}
</style>
<linearGradient id="SVGID_1_" gradientUnits="userSpaceOnUse" x1="9.5" y1="43.7208" x2="9.5" y2="24.852" gradientTransform="matrix(1 0 0 -1 0 43.8898)">
	<stop  offset="0" style="stop-color:#FFFFFF;stop-opacity:0.5"/>
	<stop  offset="1" style="stop-color:#1FB5C9"/>
</linearGradient>
<path class="st0" d="M9.5,19c5.2,0,9.5-4.3,9.5-9.5C19,4.3,14.7,0,9.5,0C4.3,0,0,4.3,0,9.5C0,14.7,4.3,19,9.5,19z"/>
<g>
	<path class="st1" d="M23,42c11,0,20-9,20-20S34,2,23,2S3,11,3,22S12,42,23,42z"/>
	<path class="st2" d="M23,42c11,0,20-9,20-20S34,2,23,2S3,11,3,22S12,42,23,42z"/>
</g>
<path class="st3" d="M23,27c-0.8,0-1.5-0.7-1.5-1.5V12.2c0-0.8,0.7-1.5,1.5-1.5s1.5,0.7,1.5,1.5v13.3C24.5,26.3,23.8,27,23,27z"/>
<path class="st3" d="M23,29c-1.4,0-2.5,1.1-2.5,2.5c0,1.4,1.1,2.5,2.5,2.5s2.5-1.1,2.5-2.5C25.5,30.1,24.4,29,23,29z"/>
</svg>
